<?xml version="1.0" encoding="UTF-8"?>
<svg id="objects" xmlns="http://www.w3.org/2000/svg" viewBox="0 0 400 400">
  <defs>
    <style>
      .cls-1 {
        fill: #4e5468;
      }

      .cls-1, .cls-2, .cls-3, .cls-4, .cls-5 {
        stroke-width: 0px;
      }

      .cls-6 {
        fill: none;
        stroke: #090a16;
        stroke-linecap: round;
        stroke-linejoin: round;
        stroke-width: 8px;
      }

      .cls-2 {
        fill: #313442;
      }

      .cls-3 {
        fill: #d6d7d8;
      }

      .cls-4 {
        fill: #1d212b;
      }

      .cls-5 {
        fill: #fff;
      }
    </style>
  </defs>
  <path class="cls-2" d="M396,200c0,107.19-86.04,194.27-192.82,195.97,114.51-2.52,126.19-140.96,48.29-183.59-.24-.15-.48-.27-.72-.39-11.97-6.73-26.67-10.98-44.17-11.82-4.37-.21-8.74-.13-13.1-.33-16.03-.82-30.11-4.65-42.2-10.72-33.92-17.01-52.02-51.59-53.1-86.3-.68-21.83,5.38-43.72,18.48-61.32,16.01-21.53,42.53-36.65,80.13-37.47.45,0,.9-.01,1.35-.02.62-.01,1.24-.01,1.86-.01,108.25,0,196,87.75,196,196Z"/>
  <path class="cls-5" d="M293.92,338.3c-12.85,31.72-42.78,56.61-90.74,57.67-.45.01-.9.01-1.35.02-.61,0-1.22,0-1.83,0-78.95,0-146.99-46.67-178.04-113.93-11.17-24.17-17.55-51.02-17.94-79.31-.01-.84-.02-1.68-.02-2.53v-.55c0-.7.01-1.39.02-2.09v-.1c.01-1.23.04-2.46.08-3.68.03-.71.05-1.42.08-2.13C8.49,88.35,92.8,5.7,196.79,4.03c-117.26,2.55-126.83,144.3-45.49,185.1,11.61,6.09,25.64,9.92,42.18,10.71,4.36.21,8.73.13,13.1.33,16.95.88,31.7,5.12,44.17,11.82.24.12.48.24.72.39,31.87,17.44,48.74,50.91,49.72,84.55.41,14.15-1.99,28.34-7.27,41.37Z"/>
  <circle class="cls-2" cx="198.96" cy="297.69" r="26.26"/>
  <circle class="cls-5" cx="198.96" cy="96.5" r="26.26"/>
  <path class="cls-4" d="M396,200.23c0,108.25-87.75,196-196,196S5.37,309.85,4.02,202.76c.39,28.29,6.77,55.14,17.94,79.31,31.05,67.26,99.09,113.93,178.04,113.93.61,0,1.22,0,1.83,0,.45-.01.9-.01,1.35-.02,47.96-1.06,77.89-25.95,90.74-57.67,56.13-30.7,95.59-88.07,101.35-155.07.48,5.6.73,11.27.73,17Z"/>
  <path class="cls-3" d="M293.92,338.3c-12.85,31.72-42.78,56.61-90.74,57.67-.45.01-.9.01-1.35.02-.61,0-1.22,0-1.83,0-78.95,0-146.99-46.67-178.04-113.93-11.17-24.17-17.55-51.02-17.94-79.31-.01-.84-.02-1.68-.02-2.53v-.55c0-.7.01-1.39.02-2.09v-.1c.02-1.23.04-2.46.08-3.68.03-.71.05-1.42.08-2.13.13-2.83.31-5.65.55-8.45,8.62,100.29,92.75,179,195.27,179,34.03,0,66.03-8.67,93.92-23.93Z"/>
  <path class="cls-1" d="M333.8,94.32c-5.57,12.41-32.35-15.84-74.68-34.83-42.34-18.98-84.19-21.52-78.62-33.93,5.58-12.42,48.64-11.69,90.97,7.3,42.33,18.99,67.9,49.05,62.33,61.47Z"/>
  <path class="cls-6" d="M396,200c0,107.19-86.04,194.27-192.82,195.97,114.51-2.52,126.19-140.96,48.29-183.59-.23-.14-.47-.27-.71-.39-11.98-6.73-26.67-10.97-44.17-11.82-4.36-.21-8.73-.12-13.1-.32-16.03-.82-30.11-4.65-42.2-10.72C69.96,148.33,79.53,6.57,196.79,4.03c.45,0,.9-.02,1.35-.02.62,0,1.24,0,1.86,0,108.25,0,196,87.75,196,196Z"/>
  <path class="cls-6" d="M203.18,395.97c-.45,0-.9.02-1.35.02-.61,0-1.21,0-1.83,0-108.25,0-196-87.75-196-196S90.02,5.74,196.79,4.03c-117.26,2.54-126.84,144.29-45.5,185.1,11.61,6.09,25.64,9.92,42.18,10.71,4.36.21,8.73.13,13.1.32,16.95.88,31.7,5.12,44.17,11.82.24.12.48.25.71.39,77.9,42.63,66.22,181.08-48.29,183.59Z"/>
  <circle class="cls-6" cx="198.96" cy="297.69" r="26.26"/>
  <circle class="cls-6" cx="198.96" cy="96.5" r="26.26"/>
</svg>