<?xml version="1.0" encoding="UTF-8"?>
<svg id="Layer_1" data-name="Layer 1" xmlns="http://www.w3.org/2000/svg" viewBox="0 0 530.23 530.23">
  <defs>
    <style>
      .cls-1 {
        stroke-width: 7px;
      }

      .cls-1, .cls-2, .cls-3, .cls-4 {
        stroke: #fff;
        stroke-miterlimit: 10;
      }

      .cls-1, .cls-5 {
        fill: #000;
      }

      .cls-2 {
        stroke-width: 5px;
      }

      .cls-2, .cls-3 {
        fill: #f196ad;
      }

      .cls-6 {
        fill: #bdffd3;
      }

      .cls-6, .cls-5, .cls-7 {
        stroke-width: 0px;
      }

      .cls-7, .cls-4 {
        fill: #fff;
      }

      .cls-3 {
        stroke-width: 6px;
      }
    </style>
  </defs>
  <circle class="cls-1" cx="265.12" cy="265.12" r="261.62"/>
  <circle class="cls-2" cx="169.11" cy="343.24" r="108.76"/>
  <g>
    <path class="cls-7" d="M112.82,346.68c2.73.15,5.45.2,8.18.16-1.68,10.45-9.8,13.96-18.22,12.51-9.38-1.43-19.24-10.25-19.24-22.39,0-11.6,9.86-14.66,19.24-14.45,8.42.41,16.54,5.42,18.22,16.52-2.73.04-5.45,0-8.18-.12-1.08-4.75-4.03-8.47-10.04-9.02-7.7-.71-10.65,3.94-10.65,9.8,0,5.73,2.95,11.92,10.65,13.34,6.01.99,8.96-2.06,10.04-6.35Z"/>
    <path class="cls-7" d="M157.46,333.26v21.79c-3.03.64-6.05,1.24-9.08,1.8v-19.71c0-4.16-2.28-7.56-7.94-7.03-5.65.52-8.18,4.73-8.18,8.97v20.12c-3.05.3-6.09.52-9.14.61v-48.81c3.05-.03,6.09-.06,9.14-.09v18.17c1.44-2.4,5.35-6.77,12.15-7.24,8.24-.52,13.05,3.88,13.05,11.42Z"/>
    <path class="cls-7" d="M187.25,318.53v7.4c-.1.01-.2.03-.3.04-1.14-.27-3.31-.48-6.07-.09-7.58,1.02-10.34,6.18-10.34,11.16,0,5.03,0,10.09,0,15.16-3.05.68-6.09,1.35-9.14,2.02v-32.91c3.05-.3,6.09-.61,9.14-.91,0,1.93,0,3.87,0,5.81,1.32-2.49,5.11-7.15,11.97-7.68,2.11-.18,3.67-.16,4.75,0Z"/>
    <path class="cls-7" d="M214.63,316.94v6.55c-.1,0-.2,0-.3,0-1.14-.36-3.31-.72-6.07-.56-7.58.44-10.34,4.82-10.34,9.36,0,4.6,0,9.45,0,14.56-3.05.44-6.09.96-9.14,1.53v-29.73c3.05-.26,6.09-.5,9.14-.71,0,1.57,0,3.17,0,4.82,1.32-2.08,5.11-5.84,11.97-6.04,2.11-.07,3.67.03,4.75.22Z"/>
    <path class="cls-7" d="M254.69,319.94c-6.41,12.95-12.83,23.03-19.24,37.3-3.01-.52-6.01-.88-9.02-1.11,1.68-3.88,3.37-7.54,5.05-11.01-5.01-11.15-10.02-20.38-15.03-27.98,3.19-.05,6.37-.04,9.56.04,3.25,5.57,6.49,12.1,9.74,19.56,3.17-6.37,6.33-12.13,9.5-18.21,3.15.38,6.29.85,9.44,1.42Z"/>
    <path class="cls-7" d="M127.72,383.72c0,7.56-6.73,10.72-15.07,10.66-4.76-.04-8.07-1.16-10.16-3.24,0,.87,0,1.72,0,2.57-2.71-.04-5.42-.09-8.12-.15,0-9.99,0-21,0-33.04,2.71.76,5.42,1.38,8.12,1.86,0,4,0,7.82,0,11.48,2.08-2.03,5.4-3.01,10.16-2.71,8.34.46,15.07,4.91,15.07,12.55ZM120.13,383.84c0-4.64-3.37-7.57-9.25-7.96-5.88-.48-9.41,1.94-9.41,6.88,0,4.9,3.53,7.63,9.41,7.78,5.88.14,9.25-2.12,9.25-6.7Z"/>
    <path class="cls-7" d="M184.81,370.18v23.86c-3.05,0-6.09,0-9.14,0,0-6.78,0-13.46,0-20.04,0-4.02-1.68-7.11-6.79-6.12-5.11.99-6.98,4.61-6.98,8.24v17.92c-3.05,0-6.09,0-9.14,0,0-5.3,0-10.83,0-16.59,0-3.53-1.68-6.33-6.79-5.54-5.11.76-7.04,4.02-7.04,7.18,0,5.36,0,10.33,0,14.91-3.03-.01-6.05-.03-9.08-.04,0-7.23,0-15.76,0-25.59,3.03-.23,6.05-.56,9.08-.96,0,1.31,0,2.6,0,3.87,1.14-1.94,3.91-5.13,10.46-6.3,5.59-1.01,9.32.19,11.13,3.31,1.14-1.89,4.75-6.42,11.79-7.93,8.24-1.75,12.51,2,12.51,9.83Z"/>
    <path class="cls-7" d="M226.28,373.84c0,13.2-7.58,21.65-16.96,21.5-5.35-.06-9.08-2.58-11.43-6.27,0,1.65,0,3.32,0,5.01-3.05-.01-6.09-.02-9.14-.02,0-16.86,0-32.31,0-46.36,3.05-.57,6.09-1.08,9.14-1.53,0,4.7,0,9.61,0,14.74,2.35-3.57,6.07-6.07,11.43-6.45,9.38-.63,16.96,6.26,16.96,19.38ZM217.74,373.6c0-8.19-3.79-12.58-10.4-12.12-6.62.55-10.58,5.36-10.58,13.14,0,7.82,3.97,12.5,10.58,12.42,6.61-.06,10.4-5.19,10.4-13.44Z"/>
  </g>
  <g>
    <path class="cls-5" d="M102.77,368.05c-15.82-1.83-26.44-17.08-26.44-31.09,0-13.4,10.63-21.11,26.44-21.27,13.52.38,23.22,9.63,25.31,22.9.06.38.12.75.18,1.13.43-.04.87-.07,1.3-.11-.22,1.4-.43,2.79-.65,4.16.22,1.33.43,2.65.65,3.96-.43.04-.87.08-1.3.12-.06.37-.12.73-.18,1.1-2.09,12.79-11.79,20.69-25.31,19.1ZM102.77,339.91c-2.34-.26-3.45-.03-3.45,3.33,0,3.08.9,3.77,3.45,4.08,2.62.3,2.81-.5,3.09-1.58.14-.57.29-1.14.43-1.71-.15-.62-.29-1.23-.44-1.86-.28-1.18-.48-2.01-3.08-2.27Z"/>
    <path class="cls-5" d="M141.18,365.85v-26.67c-.18,0-.42.01-.74.06-.45.06-.77.16-.98.24,0,9.48,0,18.36,0,26.65-7.85,1.2-15.69,1.95-23.54,1.92,0-17.69,0-39.06,0-64.12,7.85-.08,15.69-.16,23.54-.25,0,4.04,0,8,0,11.88,1.51-.45,3.16-.76,4.95-.88,12.11-.61,20.25,6.53,20.25,17.87,0,9.69,0,19.23,0,28.62-7.83,1.76-15.65,3.44-23.48,4.69Z"/>
    <path class="cls-5" d="M154.19,363.44v-48.56c7.5-.64,14.99-1.37,22.49-2.07,1.79-.64,3.73-1.07,5.82-1.25,2.68-.23,4.87-.19,6.67.09,1.76.27,3.52.54,5.28.79v18.7c-2.98.51-5.97,1.07-8.95,1.66-.45-.09-.89-.18-1.34-.27-.29-.06-1.52-.14-3.29.21-2.07.42-3.14.74-3.14,3.12v22.32c-7.85,1.76-15.69,3.62-23.54,5.24Z"/>
    <path class="cls-5" d="M181.57,357.34v-44.98c7.5-.68,14.99-1.31,22.49-1.78,1.79-.5,3.73-.82,5.82-.92,2.68-.13,4.87-.03,6.67.28,1.76.3,3.52.61,5.28.93v17.26c-2.98.09-5.97.28-8.95.55-.45-.13-.89-.26-1.34-.38-.29-.08-1.52-.27-3.29-.07-2.07.24-3.14.47-3.14,2.69v22.04c-7.85,1.09-15.69,2.66-23.54,4.38Z"/>
    <path class="cls-5" d="M215.2,362.81c2.77-6.99,5.55-13.59,8.32-19.7-6.18-12.78-12.37-23.03-18.55-32.59,8.57-.52,17.14-.83,25.71-.76,1.66,2.76,3.33,5.71,4.99,8.88,1.62-2.98,3.24-5.83,4.87-8.62,8.46.38,16.91,1.18,25.37,2.57-8.61,17.34-17.22,30.31-25.83,50.78-8.29-1.05-16.58-1.12-24.87-.56Z"/>
    <path class="cls-5" d="M112.65,401.53c-2.37-.03-4.45-.24-6.27-.6-6.4-.08-12.8-.19-19.2-.32v-46.84c7.51,2.35,15.02,3.59,22.52,4.02v8.18c.93-.05,1.92-.06,2.96-.02,13.11.26,22.27,7.62,22.27,18.72,0,11.13-9.16,17.11-22.27,16.85ZM110.88,383.56c-2.03-.09-2.21.2-2.21,1.73,0,1.57.25,1.78,2.21,1.85,2.05.07,2.05-.23,2.05-1.69,0-1.47,0-1.82-2.05-1.89Z"/>
    <path class="cls-5" d="M122.65,401.04v-38.01c6.76-.35,13.52-1.22,20.29-2.38,1.85-.84,3.99-1.54,6.46-2.03,5.04-1,8.75-.61,11.47.46,2.8-2.24,6.56-4.42,11.44-5.56,11.97-2.82,19.71,2.91,19.71,15.37v32.39c-23.12-.07-46.24-.04-69.37-.24Z"/>
    <path class="cls-7" d="M112.82,348.15c2.73.07,5.45.04,8.18-.07-1.68,10.36-9.8,14.14-18.22,13.07-9.38-1.06-19.24-8.93-19.24-21.55,0-12.35,9.86-15.55,19.24-15.16,8.42.48,16.54,5.16,18.22,15.97-2.73.1-5.45.13-8.18.07-1.08-4.64-4.03-8.23-10.04-8.71-7.7-.65-10.65,4.18-10.65,10.15,0,5.84,2.95,11.85,10.65,12.91,6.01.72,8.96-2.41,10.04-6.69Z"/>
    <path class="cls-5" d="M209.32,402.54c-2.62-.03-4.92-.5-6.93-1.22-6.95-.03-13.89-.05-20.84-.06v-59.03c7.85-1.74,15.69-3.32,23.54-4.43,0,3.05,0,6.18,0,9.41,1.3-.39,2.71-.69,4.23-.87,14.22-1.7,24.16,9.1,24.16,25.87,0,16.71-9.94,30.58-24.16,30.34ZM207.34,368.83c-2.69.28-3.38,1.16-3.38,4.29,0,3.1.7,3.85,3.38,3.63,2.78-.21,3.2-1.15,3.2-4.23,0-2.85-.29-3.97-3.2-3.69Z"/>
    <path class="cls-7" d="M157.46,333.9v21.73c-3.03.67-6.05,1.31-9.08,1.9,0-6.29,0-12.81,0-19.58,0-4.12-2.28-7.39-7.94-6.7-5.65.66-8.18,4.81-8.18,8.96v19.9c-3.05.36-6.09.63-9.14.8v-47.7c3.05-.07,6.09-.17,9.14-.3v17.54c1.44-2.37,5.35-6.7,12.15-7.4,8.24-.83,13.05,3.33,13.05,10.86Z"/>
    <path class="cls-7" d="M187.25,318v7.7c-.1.02-.2.03-.3.05-1.14-.25-3.31-.4-6.07.08-7.58,1.28-10.34,6.57-10.34,11.58,0,5.07,0,10.14,0,15.21-3.05.71-6.09,1.43-9.14,2.12,0-10.66,0-21.63,0-32.88,3.05-.42,6.09-.85,9.14-1.28,0,1.96,0,3.93,0,5.89,1.32-2.54,5.11-7.44,11.97-8.29,2.11-.28,3.67-.31,4.75-.18Z"/>
    <path class="cls-7" d="M214.63,315.34v6.9c-.1,0-.2.01-.3.02-1.14-.33-3.31-.62-6.07-.35-7.58.75-10.34,5.42-10.34,10.07,0,4.72,0,9.63,0,14.73-3.05.54-6.09,1.14-9.14,1.78v-30.42c3.05-.39,6.09-.75,9.14-1.09,0,1.67,0,3.37,0,5.09,1.32-2.21,5.11-6.37,11.97-6.82,2.11-.15,3.67-.1,4.75.08Z"/>
    <path class="cls-7" d="M254.69,317.49c-6.41,11.41-12.83,22.74-19.24,37.45-3.01-.27-6.01-.41-9.02-.44,1.68-3.96,3.37-7.73,5.05-11.33-5.01-10.71-10.02-19.75-15.03-27.68,3.19-.15,6.37-.25,9.56-.26,3.25,5.68,6.49,12.05,9.74,19.22,3.17-6.6,6.33-12.55,9.5-18.28,3.15.34,6.29.78,9.44,1.33Z"/>
    <path class="cls-7" d="M127.72,385.2c0,7.9-6.73,11.62-15.07,11.49-4.76-.08-8.07-1.36-10.16-3.5v2.61c-2.71-.13-5.42-.3-8.12-.5v-32.53c2.71.61,5.42,1.08,8.12,1.44v11.53c2.08-2.11,5.4-3.25,10.16-3.09,8.34.2,15.07,4.58,15.07,12.55ZM120.13,385.48c0-4.84-3.37-7.76-9.25-7.98-5.88-.3-9.41,2.26-9.41,7.22,0,4.91,3.53,7.74,9.41,7.91,5.88.15,9.25-2.36,9.25-7.14Z"/>
    <path class="cls-7" d="M184.81,370.12v23.05c-3.05.17-6.09.36-9.14.55v-19.56c0-3.95-1.68-6.96-6.79-5.88-5.11,1.08-6.98,4.73-6.98,8.36,0,6.07,0,12.04,0,17.92-3.05.18-6.09.36-9.14.52v-16.89c0-3.57-1.68-6.36-6.79-5.49-5.11.85-7.04,4.2-7.04,7.45,0,5.51,0,10.71,0,15.58-3.03.11-6.05.21-9.08.28,0-7.8,0-16.68,0-26.65,3.03-.29,6.05-.67,9.08-1.12,0,1.32,0,2.63,0,3.93,1.14-1.99,3.91-5.26,10.46-6.51,5.59-1.08,9.32.08,11.13,3.17,1.14-1.91,4.75-6.49,11.79-8.1,8.24-1.88,12.51,1.74,12.51,9.39Z"/>
    <path class="cls-7" d="M226.28,371.95c0,13.02-7.58,21.14-16.96,21.27-5.35.12-9.08-2.08-11.43-5.47,0,1.57,0,3.15,0,4.75-3.05.14-6.09.29-9.14.46,0-16.05,0-31.1,0-45.14,3.05-.64,6.09-1.24,9.14-1.78,0,4.7,0,9.56,0,14.58,2.35-3.59,6.07-6.18,11.43-6.8,9.38-1.06,16.96,5.24,16.96,18.15ZM217.74,372.09c0-7.95-3.79-12.06-10.4-11.31-6.62.82-10.58,5.68-10.58,13.19,0,7.54,3.97,11.78,10.58,11.45,6.61-.3,10.4-5.3,10.4-13.32Z"/>
  </g>
  <path class="cls-7" d="M172.79,286.53c-18.33-.98-18.98-.18-15.86,17.85-4.73-18.03-5.38-18.83-22.6-16.42,17.22-4.37,17.87-5.16,23.51-22.84-4.03,17.68-3.38,18.47,14.95,21.42Z"/>
  <path class="cls-7" d="M219.76,405.87c13.83,1.24,14.24,1.91,9.96,15.08,5.48-13,6.06-13.52,18.7-9.86-12.43-5.13-12.83-5.79-15.14-19.64,1.11,13.68.54,14.2-13.51,14.43Z"/>
  <path class="cls-7" d="M204.91,413.48c8.21.74,8.45,1.13,5.91,8.95,3.25-7.71,3.6-8.02,11.09-5.85-7.37-3.04-7.61-3.44-8.99-11.65.66,8.11.32,8.43-8.02,8.56Z"/>
  <path class="cls-7" d="M138.41,270.34c-13.83,1.24-14.24,1.91-9.96,15.08-5.48-13-6.06-13.52-18.7-9.86,12.43-5.13,12.83-5.79,15.14-19.64-1.11,13.68-.54,14.2,13.51,14.43Z"/>
  <g>
    <path class="cls-7" d="M144.08,426.76c-12.84-.53-25.47-5.14-35.56-13.12-.85-.67-2-.83-2.83,0-.7.7-.85,2.15,0,2.83,10.97,8.67,24.41,13.72,38.39,14.29,2.57.11,2.57-3.89,0-4h0Z"/>
    <path class="cls-7" d="M137.07,416.72c-5.52-.24-11.01-2.2-15.36-5.63-.85-.67-2-.83-2.83,0-.69.69-.85,2.16,0,2.83,5.23,4.12,11.52,6.52,18.19,6.8,1.08.05,2-.95,2-2,0-1.12-.92-1.95-2-2h0Z"/>
  </g>
  <g>
    <path class="cls-7" d="M212.96,265.2c15.21,8.01,27.68,19.84,36.41,34.65,1.96,3.32,7.15.31,5.18-3.03-9.21-15.64-22.5-28.35-38.56-36.8-3.41-1.8-6.45,3.38-3.03,5.18h0Z"/>
    <path class="cls-7" d="M212.96,279.06c9.56,5.09,17.3,12.41,22.84,21.72,1.97,3.32,7.16.3,5.18-3.03-6.04-10.15-14.56-18.32-24.99-23.87-3.41-1.81-6.44,3.36-3.03,5.18h0Z"/>
  </g>
  <path class="cls-3" d="M474.44,351.04c-11.34,1.43-13.91,13.53-18.57,24.53-13.96,33-46.64,56.16-84.72,56.16-50.78,0-91.95-41.17-91.95-91.95,0-38.09,23.16-70.77,56.16-84.72,11-4.65,23.1-7.23,24.09-19.01,24.4,11.78,36.5,14.36,38.05-18.35,20.45,42.01,30.36,48.75,74.09,22.59-27.09,42.8-20.36,52.71,21.04,73.36-32.09,1.35-29.52,13.44-18.18,37.4Z"/>
  <path class="cls-5" d="M326.93,375c10.62,8.96,24.75,13.63,38.63,11.94,2.59-.31,5.13-2.07,5-5-.11-2.44-2.22-5.34-5-5-3.02.37-6.06.44-9.1.2-.74-.06-1.48-.12-2.22-.23,1.28.2-.09-.03-.27-.06-.4-.07-.8-.14-1.2-.21-1.46-.28-2.91-.63-4.33-1.05s-2.83-.92-4.21-1.46c-1.26-.49.94.44-.3-.13-.31-.14-.62-.28-.92-.42-.67-.32-1.34-.65-1.99-.99-1.31-.7-2.59-1.45-3.83-2.27-.68-.45-1.33-.92-1.99-1.4-.85-.62.62.53-.27-.21-.31-.26-.63-.51-.94-.78-2-1.69-5.14-2.1-7.07,0-1.7,1.86-2.13,5.27,0,7.07h0Z"/>
  <g>
    <ellipse class="cls-5" cx="343.35" cy="331.34" rx="8.52" ry="17.84"/>
    <path class="cls-7" d="M358.54,341.14c-13.83-.74-14.33-.14-11.97,13.47-3.57-13.61-4.06-14.21-17.06-12.39,13-3.3,13.49-3.9,17.74-17.24-3.04,13.34-2.55,13.94,11.29,16.16Z"/>
  </g>
  <g>
    <path class="cls-5" d="M376.47,336.32c9.48.97,19.02.99,28.51.06,2.08-.2,4.1-1.69,4-4-.09-1.99-1.77-4.22-4-4-9.48.93-19.03.91-28.51-.06-2.09-.21-4.09,1.99-4,4,.11,2.35,1.76,3.77,4,4h0Z"/>
    <path class="cls-5" d="M394.89,335.22c.28,1.5.55,3,.83,4.5.09.52.75.85,1.23.7.55-.18.8-.68.7-1.23-.28-1.5-.55-3-.83-4.5-.09-.52-.75-.85-1.23-.7-.55.18-.8.68-.7,1.23h0Z"/>
    <path class="cls-5" d="M397.29,336.69c1.12,1.08,2.24,2.17,3.36,3.25.38.36,1.04.4,1.41,0s.4-1.03,0-1.41c-1.12-1.08-2.24-2.17-3.36-3.25-.38-.36-1.04-.4-1.41,0s-.4,1.03,0,1.41h0Z"/>
    <path class="cls-5" d="M399.86,335.95c1.74.82,3.47,1.64,5.21,2.46.47.22,1.1.15,1.37-.36.23-.44.15-1.13-.36-1.37-1.74-.82-3.47-1.64-5.21-2.46-.47-.22-1.1-.15-1.37.36-.23.44-.15,1.13.36,1.37h0Z"/>
  </g>
  <path class="cls-7" d="M393.47,265.94c3.7-1.18,7.39-2.45,11.12-3.53.18-.05.48-.22.64-.17-.34-.11-.08.09-.04.38.11.85.27,1.69.39,2.54.27,1.87.55,3.73.82,5.6.17,1.14,1.51,1.56,2.46,1.4,2.08-.37,4.16-.73,6.24-1.1.96-.17,1.92-.34,2.88-.51.7-.12,1.73-.52,2.41-.25l-.88-.51v-.19c0,.21,0,.41-.01.62,0,.32-.02.63-.02.95-.02.79-.04,1.58-.06,2.37-.04,1.5-.07,3-.11,4.5-.03,1.4,1.3,2.15,2.53,1.93,1.96-.35,3.93-.71,5.89-1.06.98-.18,1.96-.35,2.95-.53.49-.09.98-.18,1.47-.26.21-.04,1.12-.05,1.27-.2.38.02.23-.07-.42-.27.01.13.02.27.03.4-.09.41.07,1,.1,1.43.07.95.14,1.91.21,2.86.15,1.98.29,3.97.44,5.95.19,2.55,4.19,2.57,4,0s-.37-5.08-.56-7.62c-.15-2.05.17-5.03-1.88-6.25-1.9-1.14-4.71-.08-6.71.28-2.62.47-5.24.94-7.86,1.41l2.53,1.93c.05-2.21.11-4.43.16-6.64.05-2.08.08-4.5-2.44-5.09-.97-.23-1.95,0-2.9.18-1.12.2-2.24.39-3.36.59-2.32.41-4.64.82-6.96,1.22l2.46,1.4c-.34-2.33-.68-4.67-1.03-7-.29-1.94-.98-3.84-3.13-4.34s-4.64.85-6.57,1.46l-7.13,2.26c-2.44.78-1.4,4.64,1.06,3.86h0Z"/>
  <path class="cls-7" d="M379.45,276.34l3.98-1.26,1.87-.59c.38-.12,1.22-.54,1.54-.43l-.88-.51c.31.24.37,1.67.45,2.28.15,1.04.3,2.08.46,3.11.17,1.14,1.51,1.56,2.46,1.4,1.26-.22,2.52-.44,3.78-.66.63-.11,1.26-.22,1.89-.33.31-.06.63-.11.94-.17.6-.07.63-.1.08-.11l-.72-.72c-.14-.23-.08.76-.08.84-.01.47-.02.94-.03,1.41-.02.94-.04,1.88-.07,2.82-.03,1.4,1.3,2.15,2.53,1.93s2.58-.46,3.87-.7c.64-.12,1.29-.23,1.93-.35.32-.06.64-.12.97-.17.6-.05.64-.1.14-.15l-.72-.72c.41.56.25,2.34.31,3.13.09,1.2.18,2.4.26,3.6.19,2.55,4.19,2.57,4,0-.13-1.76-.26-3.52-.39-5.28-.11-1.55-.05-3.37-1.58-4.26-1.36-.79-3.11-.18-4.54.08-1.77.32-3.55.64-5.32.96l2.53,1.93c.04-1.57.09-3.14.11-4.7.02-1.45-.33-2.99-1.91-3.47-1.28-.39-2.82.13-4.1.36-1.65.29-3.31.58-4.96.87l2.46,1.4c-.23-1.59-.41-3.21-.7-4.79-.25-1.38-1.01-2.64-2.46-2.99s-2.96.42-4.26.84l-4.91,1.56c-2.44.78-1.4,4.64,1.06,3.86h0Z"/>
  <g>
    <g>
      <g>
        <path class="cls-7" d="M260.29,119.35c-11.35-17.44-32.44-23.54-52.28-20.59-10.96,1.63-21.37,5.85-31.19,10.87-9.11,4.67-21.16,13.43-31.83,8.43-5.41-2.54-11.87,1.64-10.28,7.91,7.02,27.66,36.07,38.15,61.77,39.26,24.85,1.07,57.74-4.04,64.63-32.71,2.11-8.76-11.39-12.49-13.5-3.72-5.27,21.93-32.95,23.22-51.13,22.43-19.41-.85-42.87-7.7-48.27-28.98l-10.28,7.91c21.83,10.23,40.54-7.97,60.33-14.62,16.81-5.65,39.13-5.72,49.94,10.89,4.9,7.52,17.02.52,12.09-7.07h0Z"/>
        <g>
          <path class="cls-6" d="M251.08,121.93c-7.33-11.84-21.82-17.92-35.74-17.98-13.93-.06-27.38,5.09-39.7,11.58-5.87,3.09-11.63,6.52-17.97,8.46s-13.5,2.24-19.37-.84c2.86,12.45,12.92,22.38,24.54,27.69,11.62,5.31,24.68,6.57,37.46,6.57,10.48,0,21.2-.85,30.79-5.08s17.94-12.38,20.1-22.63"/>
          <path class="cls-7" d="M254.1,120.16c-10.42-16.02-30.1-21.67-48.33-18.99-10.67,1.57-20.8,5.63-30.35,10.52-10.57,5.41-23.14,14.15-35.36,8.43-2.71-1.27-5.94.82-5.14,3.95,6.62,26.07,34.25,35.65,58.39,36.69,23.21,1,54.76-3.11,61.26-30.14,1.05-4.38-5.7-6.25-6.75-1.86-5.7,23.68-34.61,25.87-54.51,25-20.99-.91-45.83-8.65-51.64-31.55l-5.14,3.95c20.22,9.47,39.31-8.82,57.63-14.97,18.43-6.19,42.2-5.48,53.9,12.5,2.45,3.76,8.51.26,6.04-3.53h0Z"/>
        </g>
      </g>
      <path class="cls-4" d="M230.06,122.5c-15.23-.81-15.77-.15-13.18,14.83-3.93-14.98-4.47-15.64-18.78-13.64,14.31-3.63,14.85-4.29,19.53-18.98-3.35,14.69-2.81,15.35,12.42,17.79Z"/>
    </g>
    <g>
      <path class="cls-7" d="M174.17,277.69c40.79-42.97,78-92.03,92.98-150.33h-13.5c9.92,31.42,25.17,60.76,42.26,88.83,8.42,13.84,17.27,27.41,26.15,40.96,4.15,6.34,8.32,13.02,14.14,18,6.07,5.19,13.31,8.53,21.12,10.1,8.8,1.77,12.56-11.72,3.72-13.5-7.19-1.45-13.41-4.4-18.4-9.86-4.66-5.1-8.17-11.3-11.93-17.06-8.37-12.81-16.68-25.67-24.57-38.78-15.72-26.11-29.79-53.26-38.99-82.4-2.02-6.39-11.72-6.92-13.5,0-14.38,55.99-50.22,102.9-89.38,144.15-6.2,6.53,3.68,16.45,9.9,9.9h0Z"/>
      <g>
        <g>
          <path class="cls-7" d="M268.15,122.01c7.39-25.63,35.49-35.56,59.74-35.19,15.26.23,29.68,4.43,44.7,6.41,13.95,1.84,28.22.03,38.94-9.79l-11.95-4.95c1.38,29.74-25.67,48.57-50.68,57.51-24.08,8.61-62.74,18.35-78.62-9.38-4.48-7.82-16.58-.77-12.09,7.07,19.42,33.89,63.77,26.77,94.43,15.81,30.77-11,62.65-34.68,60.96-71.01-.29-6.15-7.4-9.11-11.95-4.95-11.17,10.23-28.04,5.98-41.23,3.29-15.55-3.17-31.51-5.2-47.35-3.18-25.78,3.29-50.87,18.53-58.41,44.64-2.5,8.67,11,12.38,13.5,3.72h0Z"/>
          <g>
            <path class="cls-6" d="M258.67,117.67c4.87-18,21.12-31.35,38.97-36.77,17.84-5.42,37.08-3.96,55.38-.36,8.71,1.71,17.42,3.91,26.3,3.97s18.18-2.3,24.54-8.5c1.1,17.07-8,33.66-20.88,44.93-12.88,11.27-29.15,17.89-45.55,22.79-13.45,4.02-27.53,7.04-41.45,5.28-13.92-1.76-27.76-9.01-34.47-21.34"/>
            <path class="cls-7" d="M262.05,118.6c7.84-27.16,37.25-38.15,63.11-37.76,15.27.23,29.69,4.37,44.7,6.41,12.96,1.76,26.45.41,36.47-8.76l-5.97-2.47c1.46,31.4-26.79,51.43-53.25,60.89-25.78,9.22-65.78,18.34-82.58-10.99-2.24-3.91-8.29-.39-6.04,3.53,18.55,32.38,61.45,24.58,90.48,14.2,29.34-10.49,60.01-32.95,58.39-67.64-.14-3.07-3.7-4.56-5.97-2.47-12.28,11.24-30.02,7.17-44.63,4.19s-30.89-5.07-46.42-3.06c-24.2,3.13-47.96,17.55-55.03,42.07-1.25,4.34,5.5,6.19,6.75,1.86h0Z"/>
          </g>
        </g>
        <path class="cls-4" d="M341.69,110.14c17.78-.95,18.42-.18,15.39,17.32,4.59-17.49,5.22-18.27,21.93-15.93-16.71-4.24-17.34-5.01-22.81-22.16,3.91,17.15,3.28,17.92-14.51,20.78Z"/>
      </g>
    </g>
  </g>
  <g>
    <g>
      <g>
        <path class="cls-6" d="M260.29,120.01c-11.35-17.44-32.44-23.54-52.28-20.59-10.96,1.63-21.37,5.85-31.19,10.87-9.11,4.67-21.16,13.43-31.83,8.43-5.41-2.54-11.87,1.64-10.28,7.91,7.02,27.66,36.07,38.15,61.77,39.26,24.85,1.07,57.74-4.04,64.63-32.71,2.11-8.76-11.39-12.49-13.5-3.72-5.27,21.93-32.95,23.22-51.13,22.43-19.41-.85-42.87-7.7-48.27-28.98l-10.28,7.91c21.83,10.23,40.54-7.97,60.33-14.62,16.81-5.65,39.13-5.72,49.94,10.89,4.9,7.52,17.02.52,12.09-7.07h0Z"/>
        <path class="cls-6" d="M251.08,122.59c-7.33-11.84-21.82-17.92-35.74-17.98-13.93-.06-27.38,5.09-39.7,11.58-5.87,3.09-11.63,6.52-17.97,8.46s-13.5,2.24-19.37-.84c2.86,12.45,12.92,22.38,24.54,27.69,11.62,5.31,24.68,6.57,37.46,6.57,10.48,0,21.2-.85,30.79-5.08,9.59-4.24,17.94-12.38,20.1-22.63"/>
      </g>
      <path class="cls-7" d="M230.06,123.16c-15.23-.81-15.77-.15-13.18,14.83-3.93-14.98-4.47-15.64-18.78-13.64,14.31-3.63,14.85-4.29,19.53-18.98-3.35,14.69-2.81,15.35,12.42,17.79Z"/>
    </g>
    <g>
      <path class="cls-6" d="M174.17,278.35c40.79-42.97,78-92.03,92.98-150.33h-13.5c9.92,31.42,25.17,60.76,42.26,88.83,8.42,13.84,17.27,27.41,26.15,40.96,4.15,6.34,8.32,13.02,14.14,18,6.07,5.19,13.31,8.53,21.12,10.1,8.8,1.77,12.56-11.72,3.72-13.5-7.19-1.45-13.41-4.4-18.4-9.86-4.66-5.1-8.17-11.3-11.93-17.06-8.37-12.81-16.68-25.67-24.57-38.78-15.72-26.11-29.79-53.26-38.99-82.4-2.02-6.39-11.72-6.92-13.5,0-14.38,55.99-50.22,102.9-89.38,144.15-6.2,6.53,3.68,16.45,9.9,9.9h0Z"/>
      <g>
        <g>
          <path class="cls-6" d="M268.15,122.67c7.39-25.63,35.49-35.56,59.74-35.19,15.26.23,29.68,4.43,44.7,6.41,13.95,1.84,28.22.03,38.94-9.79l-11.95-4.95c1.38,29.74-25.67,48.57-50.68,57.51-24.08,8.61-62.74,18.35-78.62-9.38-4.48-7.82-16.58-.77-12.09,7.07,19.42,33.89,63.77,26.77,94.43,15.81,30.77-11,62.65-34.68,60.96-71.01-.29-6.15-7.4-9.11-11.95-4.95-11.17,10.23-28.04,5.98-41.23,3.29-15.55-3.17-31.51-5.2-47.35-3.18-25.78,3.29-50.87,18.53-58.41,44.64-2.5,8.67,11,12.38,13.5,3.72h0Z"/>
          <path class="cls-6" d="M258.67,118.33c4.87-18,21.12-31.35,38.97-36.77,17.84-5.42,37.08-3.96,55.38-.36,8.71,1.71,17.42,3.91,26.3,3.97s18.18-2.3,24.54-8.5c1.1,17.07-8,33.66-20.88,44.93-12.88,11.27-29.15,17.89-45.55,22.79-13.45,4.02-27.53,7.04-41.45,5.28-13.92-1.76-27.76-9.01-34.47-21.34"/>
        </g>
        <path class="cls-7" d="M341.69,110.8c17.78-.95,18.42-.18,15.39,17.32,4.59-17.49,5.22-18.27,21.93-15.93-16.71-4.24-17.34-5.01-22.81-22.16,3.91,17.15,3.28,17.92-14.51,20.78Z"/>
      </g>
    </g>
  </g>
  <g>
    <path class="cls-7" d="M399.57,413.06c13.17-4.66,24.58-13.4,32.5-24.91,1.46-2.13-2-4.13-3.45-2.02-7.29,10.6-17.97,18.78-30.11,23.07-2.41.85-1.37,4.72,1.06,3.86h0Z"/>
    <path class="cls-7" d="M403.31,401.4c6.26-2.22,11.62-6.33,15.39-11.8.61-.89.17-2.22-.72-2.74-.99-.58-2.12-.17-2.74.72-3.1,4.5-7.86,8.14-13,9.96-1.02.36-1.7,1.37-1.4,2.46.27.99,1.44,1.76,2.46,1.4h0Z"/>
  </g>
  <circle class="cls-5" cx="111.32" cy="385.29" r="3.3"/>
  <circle class="cls-5" cx="208.19" cy="373.14" r="4.9"/>
  <rect class="cls-5" x="138.44" y="337.77" width="3.19" height="23.98"/>
  <rect class="cls-5" x="176.94" y="331.5" width="5.94" height="23.82"/>
  <path class="cls-5" d="M204.26,329.49c-.31.85-.27,1.79-.23,2.69.18,4.91-.16,9.83-.23,14.75,0,.38,0,.8.28,1.06.17.16.41.23.64.27,1.71.34,3.47-.1,5.18-.44s3.55-.6,5.15.09c.97.41,1.78,1.15,2.77,1.51,1.28.47,2.7.26,4.02-.09,1.21-.32,2.51-.87,2.98-2.03.16-.39.2-.82.25-1.24.12-1.15.24-2.32.11-3.47-.1-.91-.35-1.79-.57-2.68-.69-2.89-.97-5.94-2.36-8.56-1.51-2.84-4.48-5.02-7.69-5.02-2.02,0-3.92.81-5.87,1.22-1.66.35-3.7-.02-4.42,1.94Z"/>
  <path class="cls-5" d="M98.5,343c.03,1.65.15,3.52,1.43,4.56.99.81,2.38.85,3.66.84.72,0,1.47-.03,2.12-.34.93-.44,1.5-1.43,1.69-2.44s.02-2.05-.2-3.05c-.25-1.14-.64-2.34-1.54-3.09-.82-.67-1.95-.85-3.01-.85-1,0-2.65-.15-3.43.64-.86.87-.72,2.62-.71,3.72Z"/>
</svg>