<?xml version="1.0" encoding="UTF-8"?>
<svg id="Layer_1" data-name="Layer 1" xmlns="http://www.w3.org/2000/svg" viewBox="0 0 435.82 211.52">
  <defs>
    <style>
      .cls-1 {
        fill: #f196ad;
      }

      .cls-1, .cls-2 {
        stroke-width: 0px;
      }

      .cls-2 {
        fill: #000;
      }
    </style>
  </defs>
  <g>
    <path class="cls-1" d="M433.34,129.36c-29.4-1.57-30.44-.3-25.44,28.62-7.58-28.92-8.63-30.2-36.25-26.34,27.62-7,28.66-8.28,37.71-36.64-6.46,28.36-5.41,29.63,23.98,34.35h0Z"/>
    <path class="cls-1" d="M355.85,165.01c18.38-.98,19.04-.19,15.91,17.9,4.74-18.08,5.4-18.88,22.66-16.47-17.27-4.38-17.92-5.18-23.58-22.91,4.04,17.73,3.39,18.53-15,21.48h0Z"/>
  </g>
  <g>
    <path class="cls-1" d="M52.58,127.95c-23-2.68-49.87-25.92-49.87-58.47,0-14.54,5.69-24.15,16.47-30.91,8.62-5.31,20.48-8.5,33.4-7.89,25.44.98,43.64,18.21,47.49,43.15.49,3.18.98,6.32,1.48,9.42-10.75.57-21.49.61-32.24-.03-.47-2-.94-4.02-1.42-6.05-1.92-8.32-6.64-12.31-15.31-13.19-10.88-1.18-16.4,3.88-16.4,15.47s5.52,18.43,16.4,20.1c8.54,1.21,13.41-1.89,15.31-9.42.48-1.89.95-3.81,1.43-5.74,10.74.65,21.48.6,32.22.03-.49,3.14-.98,6.24-1.48,9.3-3.85,23.73-22.05,37.9-47.49,34.23h0Z"/>
    <path class="cls-1" d="M74.85,92.53c6.04.25,12.09.28,18.13.12-3.73,23.06-21.73,31.14-40.4,28.32-20.8-2.79-42.67-21.32-42.67-48.82s21.87-33.51,42.67-32.77c18.67,1.04,36.67,11.81,40.4,36.11-6.04.15-12.09.14-18.13-.07-2.4-10.41-8.94-18.55-22.27-19.71-17.07-1.56-23.6,8.96-23.6,22.1s6.54,26.39,23.6,29.16c13.33,1.91,19.87-4.94,22.27-14.43h0Z"/>
    <path class="cls-1" d="M146.5,122.67v-50.86c0-4.05-1.08-9.31-10.4-8.18-7.05.83-10.94,4.72-10.94,10.97v51.32c-11.55,1.46-23.11,2.4-34.66,2.58V4.83c11.55-.12,23.11-.23,34.66-.35v30.84c5.02-3.3,11.54-5.96,19.74-6.53,21.95-1.26,36.13,11.29,36.13,31.88v55.1c-11.51,2.52-23.02,4.91-34.53,6.92v-.02Z"/>
    <path class="cls-1" d="M173.83,61.92v48.24c-6.71,1.44-13.42,2.82-20.13,4.09v-43.56c0-9.18-5.06-16.57-17.6-15.23-12.53,1.31-18.14,10.58-18.14,19.86v44.36c-6.75.73-13.51,1.26-20.26,1.55V14.21c6.75-.1,13.51-.24,20.26-.4v39.6c3.2-5.28,11.87-14.93,26.94-16.21,18.27-1.49,28.93,8,28.93,24.71h0Z"/>
    <path class="cls-1" d="M175.34,116.99V28.38c11.55-1.07,23.11-2.22,34.66-3.34v3.28c5.3-3.56,11.78-6.03,19.33-6.67,5.08-.44,9.27-.39,12.45.1,1.76.27,3.52.54,5.28.8v27.64c-3.11.48-6.21.99-9.32,1.51-.45-.1-.89-.2-1.34-.3-1.87-.42-5.79-.62-10.68.22-10.44,1.78-15.73,7.48-15.73,16.93v40.73c-11.55,2.6-23.11,5.26-34.66,7.74v-.03Z"/>
    <path class="cls-1" d="M239.88,27.97v16.74c-.22.03-.45.07-.67.1-2.54-.58-7.33-.97-13.47,0-16.8,2.54-22.94,14.12-22.94,25.2v33.67c-6.75,1.54-13.51,3.08-20.26,4.58V35.31c6.75-.8,13.51-1.62,20.26-2.43v12.97c2.94-5.58,11.33-16.18,26.53-17.7,4.67-.51,8.14-.51,10.54-.18h.01Z"/>
    <path class="cls-1" d="M236.05,103.6V22.59c11.55-1.03,23.11-1.97,34.66-2.72v2.69c5.3-2.84,11.78-4.73,19.33-5.05,5.08-.21,9.27,0,12.45.55,1.76.31,3.52.63,5.28.95v25c-3.11.09-6.21.23-9.32.4-.45-.13-.89-.27-1.34-.4-1.87-.56-5.79-1.1-10.68-.69-10.44.9-15.73,5.74-15.73,14.43v39.68c-11.55,1.65-23.11,3.79-34.66,6.16h.01Z"/>
    <path class="cls-1" d="M300.58,23.36v14.89c-.22,0-.45.02-.67.03-2.53-.76-7.33-1.5-13.47-1.03-16.8,1.29-22.94,11.32-22.94,21.51v32.46c-6.75,1.09-13.51,2.32-20.26,3.66V28.2c6.75-.71,13.51-1.38,20.26-1.97v10.98c2.94-4.76,11.33-13.52,26.53-14.21,4.67-.24,8.14-.06,10.54.36h.01Z"/>
    <path class="cls-1" d="M315.52,117.87c4.82-11.69,9.64-22.69,14.47-32.96-12.28-26.35-24.57-47.72-36.85-66.22,12.45-.5,24.9-.71,37.35-.51,5.62,9.48,11.23,20.1,16.85,31.94,5.48-10.58,10.95-20.46,16.43-30.35,12.29,1.01,24.57,2.51,36.86,4.63-16.42,33.12-32.83,58.37-49.25,96.07-11.95-1.8-23.9-2.59-35.85-2.6h0Z"/>
    <path class="cls-1" d="M389.42,29.47c-14.22,26.65-28.45,50.36-42.67,82.48-6.67-.89-13.33-1.46-20-1.76,3.73-8.69,7.47-16.93,11.2-24.76-11.11-24.24-22.22-44.48-33.33-61.69,7.07-.2,14.13-.27,21.2-.18,7.2,12.45,14.4,26.74,21.6,42.94,7.02-14.34,14.05-27.26,21.07-40.21,6.98.84,13.95,1.89,20.93,3.18h0Z"/>
    <path class="cls-1" d="M74.47,203.94c-6.15-.06-11.2-.82-15.32-2.02v.66c-10.8-.15-21.61-.34-32.41-.56v-86.98c10.8,3.22,21.61,5.38,32.41,6.69v19.8c4.12-1.04,9.17-1.56,15.32-1.25,23.92.94,40.62,14.55,40.62,34.04s-16.7,29.96-40.62,29.62ZM70.57,163.52c-9.19-.59-13.66,2.71-13.66,10.22s4.47,11.04,13.66,11.41c9.07.3,13.3-2.79,13.3-10.05s-4.23-11.11-13.3-11.57h0Z"/>
    <path class="cls-1" d="M107.9,174.69c0,17.13-14.93,24.74-33.42,24.48-10.55-.17-17.89-2.85-22.52-7.52v5.72c-6-.22-12.01-.48-18.01-.8v-72.54c6,1.53,12.01,2.74,18.01,3.68v25.5c4.62-4.58,11.97-6.92,22.52-6.39,18.49.76,33.42,10.54,33.42,27.86h0ZM91.07,175.11c0-10.51-7.47-16.98-20.5-17.68-13.04-.88-20.86,4.62-20.86,15.57s7.82,17.02,20.86,17.41c13.03.35,20.5-4.92,20.5-15.29h0Z"/>
    <path class="cls-1" d="M207.01,203.22v-50.32c0-7.34-3.01-8.23-7.86-7.33-4.09.76-8.27,2.57-8.27,10.03v47.6c-11.56-.01-23.11-.03-34.67-.05v-42.12c0-6.54-3.01-7.42-7.86-6.7-3.91.56-8.4,2.11-8.4,8.82v39.95c-11.51-.04-23.02-.1-34.53-.18v-69.01c11.51-.77,23.02-2.18,34.53-4.01v1.1c4.18-2.39,9.43-4.46,16-5.7,10.52-2,19.17-.95,25.2,3.25,5.95-5.94,14.59-11.62,25.6-14.09,21.55-4.86,34.93,5.23,34.93,27.4v61.41c-11.56-.02-23.11-.04-34.67-.05h0Z"/>
    <path class="cls-1" d="M234.48,143.02v52c-6.76.18-13.51.38-20.27.58v-43.89c0-8.83-3.73-15.61-15.06-13.31s-15.47,10.35-15.47,18.4v39.72c-6.76.2-13.51.39-20.27.57v-37.11c0-7.86-3.73-14.07-15.06-12.23-11.33,1.78-15.6,9.11-15.6,16.21v33.79c-6.71.11-13.42.19-20.13.24v-57.89c6.71-.58,13.42-1.36,20.13-2.29v8.64c2.53-4.35,8.66-11.52,23.2-14.2,12.4-2.31,20.67.31,24.67,7.19,2.53-4.21,10.53-14.3,26.13-17.76,18.27-4.02,27.73,4.16,27.73,21.32v.02Z"/>
    <path class="cls-1" d="M288.81,206.11c-7.42-.08-13.38-2.03-18.13-4.74v1.99c-11.56-.05-23.11-.08-34.67-.1v-115.62c11.56-2.38,23.11-4.53,34.67-6.2v24.32c4.76-2.89,10.71-5.16,18.13-5.85,26.38-2.44,44.8,18.22,44.8,49.66s-18.42,56.92-44.8,56.55h0ZM284.42,131.11c-10.79,1.02-16.27,7.83-16.27,20.36s5.47,18.78,16.27,18.29c10.68-.41,15.87-7.3,15.87-20.5s-5.19-19.04-15.87-18.15h0Z"/>
    <path class="cls-1" d="M326.42,149.23c0,29.13-16.8,47.47-37.6,47.37-11.87.03-20.13-5.22-25.33-13.09v10.82c-6.75.13-13.51.28-20.26.45v-101.44c6.75-1.33,13.51-2.57,20.26-3.66v32.5c5.2-7.93,13.47-13.57,25.33-14.67,20.8-1.85,37.6,12.79,37.6,41.71h0ZM307.48,149.07c0-17.91-8.4-27.36-23.07-26.04-14.67,1.51-23.47,12.22-23.47,29.17s8.8,26.94,23.47,26.51c14.66-.37,23.07-11.58,23.07-29.65h0Z"/>
  </g>
  <g>
    <path class="cls-2" d="M84.71,97.98c6.04.34,12.09.44,18.13.35-3.73,23.16-21.73,30.96-40.4,27.73-20.8-3.16-42.67-22.72-42.67-49.64s21.87-32.51,42.67-32.03c18.67.91,36.67,12.01,40.4,36.62-6.04.09-12.09,0-18.13-.27-2.4-10.52-8.94-18.79-22.27-19.99-17.07-1.58-23.6,8.74-23.6,21.72s6.54,26.43,23.6,29.58c13.33,2.19,19.87-4.58,22.27-14.08h0Z"/>
    <path class="cls-2" d="M183.69,68.22v48.31c-6.71,1.41-13.42,2.75-20.13,3.99v-43.7c0-9.23-5.06-16.76-17.6-15.58-12.53,1.16-18.14,10.5-18.14,19.88v44.6c-6.75.67-13.51,1.14-20.26,1.35V18.84c6.75-.07,13.51-.13,20.26-.2v40.29c3.2-5.31,11.87-15.01,26.94-16.04,18.27-1.16,28.93,8.6,28.93,25.33h0Z"/>
    <path class="cls-2" d="M249.74,35.55v16.4c-.22.03-.45.06-.67.09-2.53-.61-7.33-1.06-13.47-.2-16.8,2.26-22.94,13.7-22.94,24.75v33.61c-6.75,1.5-13.51,3-20.26,4.47V41.7c6.75-.66,13.51-1.35,20.26-2.03v12.88c2.94-5.51,11.33-15.85,26.53-17.03,4.67-.41,8.14-.35,10.54,0v.02Z"/>
    <path class="cls-2" d="M310.44,32.03v14.52c-.22,0-.45,0-.67.02-2.54-.79-7.33-1.6-13.47-1.24-16.8.98-22.94,10.69-22.94,20.76v32.27c-6.75.98-13.51,2.13-20.26,3.39V35.83c6.75-.58,13.51-1.11,20.26-1.57v10.68c2.94-4.61,11.33-12.96,26.53-13.4,4.67-.16,8.14.06,10.54.5h.01Z"/>
    <path class="cls-2" d="M399.27,38.68c-14.22,28.72-28.45,51.07-42.67,82.69-6.67-1.15-13.33-1.96-20-2.47,3.73-8.6,7.47-16.72,11.2-24.41-11.11-24.71-22.22-45.18-33.33-62.04,7.07-.1,14.13-.08,21.2.08,7.2,12.35,14.4,26.83,21.6,43.37,7.02-14.12,14.05-26.9,21.07-40.37,6.98.85,13.95,1.89,20.93,3.14h0Z"/>
    <path class="cls-2" d="M117.75,180.09c0,16.76-14.93,23.76-33.42,23.65-10.55-.1-17.89-2.58-22.52-7.18v5.69c-6-.1-12.01-.21-18.01-.33v-73.25c6,1.69,12.01,3.05,18.01,4.13v25.46c4.62-4.5,11.97-6.68,22.52-6,18.49,1.02,33.42,10.89,33.42,27.84h0ZM100.92,180.35c0-10.29-7.47-16.77-20.5-17.64-13.04-1.06-20.86,4.31-20.86,15.25s7.82,16.91,20.86,17.24c13.03.31,20.5-4.7,20.5-14.85h0Z"/>
    <path class="cls-2" d="M244.33,150.08v52.9c-6.76,0-13.51-.01-20.27-.02v-44.42c0-8.91-3.73-15.77-15.06-13.58s-15.47,10.22-15.47,18.26v39.73c-6.76,0-13.51,0-20.27-.02v-36.77c0-7.82-3.73-14.03-15.06-12.28-11.33,1.69-15.6,8.92-15.6,15.92v33.07c-6.71-.03-13.42-.06-20.13-.1v-56.74c6.71-.52,13.42-1.24,20.13-2.12v8.59c2.53-4.29,8.66-11.38,23.2-13.97,12.4-2.24,20.67.43,24.67,7.34,2.53-4.18,10.53-14.23,26.13-17.58,18.27-3.88,27.73,4.44,27.73,21.8h0Z"/>
    <path class="cls-2" d="M336.27,158.18c0,29.26-16.8,48.01-37.6,47.67-11.87-.13-20.13-5.72-25.33-13.9v11.1c-6.75-.02-13.51-.04-20.26-.05v-102.78c6.75-1.26,13.51-2.41,20.26-3.39v32.68c5.2-7.92,13.47-13.45,25.33-14.3,20.8-1.39,37.6,13.87,37.6,42.98h0ZM317.34,157.64c0-18.15-8.4-27.9-23.07-26.88-14.67,1.22-23.47,11.89-23.47,29.14s8.8,27.73,23.47,27.55c14.66-.13,23.07-11.5,23.07-29.81Z"/>
  </g>
</svg>