<?xml version="1.0" encoding="UTF-8"?>
<svg id="Layer_1" data-name="Layer 1" xmlns="http://www.w3.org/2000/svg" viewBox="0 0 559.34 270">
  <defs>
    <style>
      .cls-1, .cls-2, .cls-3, .cls-4, .cls-5, .cls-6, .cls-7, .cls-8, .cls-9 {
        fill: #000;
      }

      .cls-1, .cls-3, .cls-7, .cls-9 {
        font-size: 24px;
      }

      .cls-1, .cls-5 {
        font-family: Courier, Courier;
      }

      .cls-2, .cls-3, .cls-4, .cls-7 {
        font-weight: 700;
      }

      .cls-2, .cls-4, .cls-5, .cls-8 {
        font-size: 12px;
      }

      .cls-2, .cls-7 {
        font-family: Courier-Bold, Courier;
      }

      .cls-3, .cls-4 {
        font-family: Courier-BoldOblique, Courier;
      }

      .cls-3, .cls-4, .cls-8, .cls-9 {
        font-style: oblique;
      }

      .cls-6 {
        stroke-width: 0px;
      }

      .cls-8, .cls-9 {
        font-family: Courier-Oblique, Courier;
      }
    </style>
  </defs>
  <g>
    <path class="cls-6" d="M133.67,72.29h-5.64c-1.57,0-2.67-.21-3.3-.64-.63-.42-.95-1.14-.95-2.15,0-1.06.28-1.78.83-2.18.55-.4,2.07-.6,4.54-.6h11.02c1.42,0,2.38.19,2.88.56.5.37.96,1.06,1.37,2.07l15.12,37.77h.66c1.39,0,2.34.19,2.86.58s.77,1.08.77,2.09c0,1.06-.25,1.79-.73,2.18-.49.4-1.41.6-2.75.6h-10.51c-1.96,0-3.21-.2-3.77-.6-.55-.4-.83-1.13-.83-2.18,0-.98.3-1.67.91-2.07.61-.4,1.75-.6,3.42-.6h3.6l-3.75-9.2h-19.64l-3.33,9.2h3.75c1.7,0,2.86.2,3.48.6.62.4.93,1.09.93,2.07,0,1.06-.28,1.79-.83,2.18-.55.4-1.77.6-3.65.6h-10.17c-1.65,0-2.75-.2-3.29-.6-.54-.4-.81-1.13-.81-2.18s.27-1.7.81-2.09,1.58-.58,3.13-.58h.73l13.14-34.83ZM131.7,92.77h15.81l-8.31-20.49-7.5,20.49Z"/>
    <path class="cls-6" d="M196.06,107.66c-2.11,1.91-4.41,3.36-6.9,4.37-2.49,1-5.04,1.51-7.67,1.51-3.84,0-6.94-1.07-9.3-3.21-2.36-2.14-3.54-4.92-3.54-8.35,0-4.07,1.57-7.23,4.7-9.47,3.13-2.24,7.53-3.36,13.2-3.36,1.49,0,3,.1,4.52.29s3.08.5,4.68.91v-.27c0-2.96-.71-5.15-2.13-6.57-1.42-1.42-3.62-2.13-6.61-2.13-2.01,0-4.25.54-6.73,1.62-2.47,1.08-4.11,1.62-4.91,1.62-.75,0-1.37-.3-1.86-.91-.49-.61-.73-1.39-.73-2.34,0-1.52,1.42-2.81,4.27-3.87,2.85-1.06,6.49-1.58,10.92-1.58s7.96,1.15,10.28,3.46c2.32,2.31,3.48,5.72,3.48,10.22v17.51h1.89c1.83,0,3.05.19,3.67.58.62.39.93,1.08.93,2.09,0,.93-.26,1.62-.77,2.09-.52.46-1.29.7-2.32.7h-6.07c-.72,0-1.31-.22-1.78-.66-.46-.44-.77-1.07-.93-1.89l-.31-2.36ZM195.75,95.48c-1.42-.46-2.79-.8-4.12-1.02-1.33-.22-2.65-.33-3.96-.33-3.97,0-7.1.67-9.39,2.01-2.29,1.34-3.44,3.14-3.44,5.41,0,1.75.71,3.2,2.15,4.33,1.43,1.13,3.25,1.7,5.47,1.7,3.27,0,6.31-.86,9.1-2.57s4.19-3.5,4.19-5.35v-4.18Z"/>
  </g>
  <g>
    <text class="cls-1" transform="translate(9.78 27.76)"><tspan x="0" y="0">Courier Regular</tspan></text>
    <text class="cls-5" transform="translate(9.86 41.59)"><tspan x="0" y="0">ABCDEFGHIJKLMNOPQRSTUV</tspan></text>
    <text class="cls-5" transform="translate(9.78 52.33)"><tspan x="0" y="0">abcefghijklmnopqrstuv</tspan></text>
    <text class="cls-5" transform="translate(9.78 63.08)"><tspan x="0" y="0">1234567890</tspan></text>
    <text class="cls-5" transform="translate(9.78 73.83)"><tspan x="0" y="0">!@#$%^&amp;*()_+</tspan></text>
  </g>
  <g>
    <path class="cls-6" d="M409.16,104.1h.66c1.39,0,2.45.35,3.17,1.06.72.71,1.08,1.75,1.08,3.11,0,1.52-.38,2.62-1.14,3.29-.76.67-2.02,1-3.77,1h-11.64c-1.78,0-3.04-.33-3.79-.99-.75-.66-1.12-1.76-1.12-3.31s.37-2.56,1.12-3.21c.75-.64,2.01-.97,3.79-.97h1.35l-1.58-4.52h-16.7l-1.66,4.52h1.35c1.75,0,3.01.33,3.77.99.76.66,1.14,1.72,1.14,3.19s-.38,2.62-1.14,3.29c-.76.67-2.02,1-3.77,1h-9.97c-1.78,0-3.04-.33-3.79-1s-1.12-1.77-1.12-3.29c0-1.37.36-2.4,1.08-3.11.72-.71,1.78-1.06,3.17-1.06h.66l10.36-28.84h-3.09c-1.75,0-3.01-.33-3.77-1-.76-.67-1.14-1.75-1.14-3.25s.38-2.62,1.14-3.29c.76-.67,2.02-1,3.77-1h14.5c2.29,0,3.9,1.24,4.83,3.71v.12l12.25,33.55ZM388.9,75.26l-5.61,16.31h11.21l-5.6-16.31Z"/>
    <path class="cls-6" d="M452.96,104.1h.62c1.39,0,2.46.37,3.19,1.1s1.1,1.79,1.1,3.15c0,1.5-.38,2.57-1.14,3.23-.76.66-2.02.99-3.77.99h-3.63c-1.29,0-2.25-.25-2.88-.73-.63-.49-1.15-1.38-1.57-2.67-2.14,1.42-4.41,2.5-6.8,3.25s-4.82,1.12-7.27,1.12c-4.15,0-7.41-1.03-9.78-3.09-2.37-2.06-3.56-4.88-3.56-8.47,0-3.87,1.53-6.87,4.6-9.01,3.07-2.14,7.37-3.21,12.91-3.21,1.24,0,2.55.06,3.94.19s2.95.33,4.68.62v-.73c0-2.32-.56-4.08-1.68-5.3-1.12-1.21-2.78-1.82-4.97-1.82-1.7,0-3.87.63-6.51,1.89-2.64,1.26-4.58,1.89-5.82,1.89s-2.19-.35-2.94-1.06c-.75-.71-1.12-1.64-1.12-2.8,0-2.09,1.53-3.74,4.58-4.97,3.05-1.22,7.21-1.84,12.47-1.84s9.42,1.06,11.79,3.17,3.56,5.7,3.56,10.75v14.34ZM443.6,96.64c-1.29-.28-2.47-.5-3.56-.64-1.08-.14-2.09-.21-3.02-.21-2.83,0-5.06.48-6.67,1.43-1.61.95-2.42,2.27-2.42,3.94,0,1.5.52,2.64,1.55,3.42,1.03.79,2.51,1.18,4.45,1.18,1.78,0,3.45-.26,5.03-.77,1.57-.51,3.12-1.31,4.64-2.4v-5.95Z"/>
  </g>
  <text class="cls-7" transform="translate(271.15 27.76)"><tspan x="0" y="0">Courier Bold</tspan></text>
  <text class="cls-2" transform="translate(271.23 41.59)"><tspan x="0" y="0">ABCDEFGHIJKLMNOPQRSTUV</tspan></text>
  <text class="cls-2" transform="translate(271.15 52.33)"><tspan x="0" y="0">abcefghijklmnopqrstuv</tspan></text>
  <text class="cls-2" transform="translate(271.15 63.08)"><tspan x="0" y="0">1234567890</tspan></text>
  <text class="cls-2" transform="translate(271.15 73.83)"><tspan x="0" y="0">!@#$%^&amp;*()_+</tspan></text>
  <g>
    <path class="cls-6" d="M141.55,216.18h-5.64c-1.57,0-2.63-.21-3.17-.64-.54-.42-.71-1.14-.5-2.15.23-1.06.67-1.78,1.31-2.18.64-.4,2.2-.6,4.68-.6h11.02c1.42,0,2.33.19,2.75.56.41.37.72,1.06.93,2.07l7.07,37.77h.66c1.39,0,2.31.19,2.75.58.44.39.55,1.08.35,2.09-.23,1.06-.63,1.79-1.2,2.18-.57.4-1.52.6-2.86.6h-10.51c-1.96,0-3.18-.2-3.65-.6-.48-.4-.6-1.13-.37-2.18.21-.98.65-1.67,1.33-2.07.68-.4,1.86-.6,3.54-.6h3.6l-1.78-9.2h-19.64l-5.3,9.2h3.75c1.7,0,2.82.2,3.36.6.54.4.71,1.09.5,2.07-.23,1.06-.66,1.79-1.29,2.18-.63.4-1.89.6-3.77.6h-10.17c-1.65,0-2.71-.2-3.17-.6-.46-.4-.58-1.13-.35-2.18.21-1,.62-1.7,1.24-2.09.62-.39,1.7-.58,3.25-.58h.74l20.57-34.83ZM135.21,236.66h15.81l-3.94-20.49-11.87,20.49Z"/>
    <path class="cls-6" d="M196.4,251.55c-2.5,1.91-5.1,3.36-7.81,4.37s-5.37,1.51-8,1.51c-3.84,0-6.71-1.07-8.62-3.21-1.91-2.14-2.49-4.92-1.74-8.35.85-4.07,3.08-7.23,6.69-9.47s8.25-3.36,13.92-3.36c1.49,0,2.98.1,4.46.29,1.48.19,2.98.5,4.5.91l.04-.27c.64-2.96.41-5.15-.71-6.57-1.12-1.42-3.18-2.13-6.17-2.13-2.01,0-4.37.54-7.07,1.62-2.71,1.08-4.46,1.62-5.26,1.62-.75,0-1.3-.3-1.66-.91-.36-.61-.44-1.39-.23-2.34.33-1.52,2.04-2.81,5.1-3.87,3.07-1.06,6.82-1.58,11.25-1.58s7.72,1.15,9.55,3.46c1.83,2.31,2.27,5.72,1.31,10.22l-3.75,17.51h1.89c1.83,0,3.01.19,3.56.58.54.39.71,1.08.5,2.09-.21.93-.61,1.62-1.22,2.09s-1.42.7-2.46.7h-6.07c-.72,0-1.27-.22-1.64-.66-.37-.44-.55-1.07-.52-1.89l.15-2.36ZM198.68,239.37c-1.31-.46-2.61-.8-3.89-1.02-1.28-.22-2.57-.33-3.88-.33-3.97,0-7.24.67-9.82,2.01-2.58,1.34-4.11,3.14-4.6,5.41-.36,1.75.05,3.2,1.24,4.33s2.89,1.7,5.1,1.7c3.27,0,6.49-.86,9.64-2.57s4.93-3.5,5.32-5.35l.89-4.18Z"/>
  </g>
  <text class="cls-9" transform="translate(9.78 171.64)"><tspan x="0" y="0">Courier Italic</tspan></text>
  <text class="cls-8" transform="translate(9.86 185.47)"><tspan x="0" y="0">ABCDEFGHIJKLMNOPQRSTUV</tspan></text>
  <text class="cls-8" transform="translate(9.78 196.22)"><tspan x="0" y="0">abcefghijklmnopqrstuv</tspan></text>
  <text class="cls-8" transform="translate(9.78 206.97)"><tspan x="0" y="0">1234567890</tspan></text>
  <text class="cls-8" transform="translate(9.78 217.71)"><tspan x="0" y="0">!@#$%^&amp;*()_+</tspan></text>
  <g>
    <path class="cls-6" d="M409.91,247.99h.66c1.39,0,2.37.35,2.94,1.06.57.71.71,1.75.42,3.11-.31,1.52-.92,2.62-1.82,3.29-.9.67-2.23,1-3.98,1h-11.64c-1.78,0-2.98-.33-3.59-.99-.62-.66-.76-1.76-.43-3.31.31-1.49.91-2.56,1.8-3.21.89-.64,2.22-.97,4-.97h1.35l-.62-4.52h-16.7l-2.63,4.52h1.35c1.75,0,2.94.33,3.56.99s.77,1.72.46,3.19c-.31,1.52-.92,2.62-1.82,3.29s-2.23,1-3.98,1h-9.97c-1.78,0-2.96-.33-3.56-1s-.75-1.77-.46-3.29c.28-1.37.86-2.4,1.74-3.11.88-.71,2.01-1.06,3.4-1.06h.66l16.51-28.84h-3.09c-1.75,0-2.94-.33-3.56-1-.62-.67-.77-1.75-.46-3.25.33-1.52.95-2.62,1.86-3.29.9-.67,2.23-1,3.98-1h14.5c2.29,0,3.63,1.24,4.02,3.71v.12l5.1,33.55ZM395.8,219.15l-9.08,16.31h11.21l-2.13-16.31Z"/>
    <path class="cls-6" d="M453.71,247.99h.62c1.39,0,2.38.37,2.96,1.1.58.73.73,1.79.44,3.15-.33,1.5-.95,2.57-1.84,3.23-.89.66-2.21.99-3.96.99h-3.63c-1.29,0-2.2-.25-2.73-.73s-.87-1.38-1.02-2.67c-2.42,1.42-4.92,2.5-7.48,3.25-2.57.75-5.07,1.12-7.52,1.12-4.15,0-7.19-1.03-9.12-3.09s-2.51-4.88-1.74-8.47c.82-3.87,3-6.87,6.51-9.01,3.52-2.14,8.05-3.21,13.59-3.21,1.24,0,2.54.06,3.9.19s2.87.33,4.52.62l.15-.73c.52-2.32.34-4.08-.52-5.3-.86-1.21-2.39-1.82-4.58-1.82-1.7,0-4.01.63-6.92,1.89s-4.99,1.89-6.22,1.89-2.12-.35-2.73-1.06-.78-1.64-.52-2.8c.44-2.09,2.31-3.74,5.62-4.97,3.31-1.22,7.6-1.84,12.85-1.84s9.2,1.06,11.13,3.17,2.36,5.7,1.28,10.75l-3.05,14.34ZM445.94,240.53c-1.24-.28-2.38-.5-3.42-.64s-2.03-.21-2.96-.21c-2.83,0-5.16.48-6.98,1.43-1.82.95-2.91,2.27-3.27,3.94-.31,1.5-.03,2.64.83,3.42.86.79,2.26,1.18,4.19,1.18,1.78,0,3.5-.26,5.18-.77,1.67-.51,3.39-1.31,5.14-2.4l1.28-5.95Z"/>
  </g>
  <text class="cls-3" transform="translate(271.15 171.64)"><tspan x="0" y="0">Courier Bold Italic</tspan></text>
  <text class="cls-4" transform="translate(271.23 185.47)"><tspan x="0" y="0">ABCDEFGHIJKLMNOPQRSTUV</tspan></text>
  <text class="cls-4" transform="translate(271.15 196.22)"><tspan x="0" y="0">abcefghijklmnopqrstuv</tspan></text>
  <text class="cls-4" transform="translate(271.15 206.97)"><tspan x="0" y="0">1234567890</tspan></text>
  <text class="cls-4" transform="translate(271.15 217.71)"><tspan x="0" y="0">!@#$%^&amp;*()_+</tspan></text>
</svg>